<!DOCTYPE svg PUBLIC "-//W3C//DTD SVG 1.1//EN" "http://www.w3.org/Graphics/SVG/1.1/DTD/svg11.dtd">

<!-- Uploaded to: SVG Repo, www.svgrepo.com, Transformed by: SVG Repo Mixer Tools -->
<svg height="30px" width="30px" version="1.1" id="Layer_1" xmlns="http://www.w3.org/2000/svg" xmlns:xlink="http://www.w3.org/1999/xlink" viewBox="0 0 330 330" xml:space="preserve" stroke="#05789b"><g id="SVGRepo_bgCarrier" stroke-width="0"></g><g id="SVGRepo_tracerCarrier" stroke-linecap="round" stroke-linejoin="round"></g><g id="SVGRepo_iconCarrier"> <path id="XMLID_12_" d="M285.009,281.944c-41.64-24.087-67.507-68.897-67.507-116.942c0-48.049,25.867-92.859,67.507-116.946 c4.635-2.682,7.489-7.63,7.489-12.984s-2.854-10.303-7.489-12.984C260.03,7.638,231.497,0,202.494,0 C111.517,0,37.502,74.02,37.502,165.002c0,90.98,74.015,164.998,164.992,164.998c29.001,0,57.534-7.638,82.515-22.087 c4.635-2.681,7.489-7.63,7.489-12.984C292.498,289.574,289.644,284.626,285.009,281.944z M202.494,300 c-74.435,0-134.992-60.56-134.992-134.998C67.502,90.562,128.059,30,202.494,30c15.405,0,30.645,2.631,45.025,7.706 c-14.808,12.229-27.458,26.998-37.256,43.62c-14.891,25.265-22.762,54.199-22.762,83.676c0,29.475,7.871,58.408,22.763,83.672 c9.797,16.622,22.447,31.392,37.255,43.619C233.138,297.369,217.898,300,202.494,300z"></path> </g></svg>